<svg id="visual" viewBox="0 0 960 540" width="960" height="540" xmlns="http://www.w3.org/2000/svg" xmlns:xlink="http://www.w3.org/1999/xlink" version="1.1"><g><g transform="translate(662 8)"><path d="M0 -161.2L126 -100.5L157.1 35.9L69.9 145.2L-69.9 145.2L-157.1 35.9L-126 -100.5Z" fill="none" stroke="#D6336C" stroke-width="3"></path></g><g transform="translate(170 44)"><path d="M0 -160L125.1 -99.8L156 35.6L69.4 144.2L-69.4 144.2L-156 35.6L-125.1 -99.8Z" fill="none" stroke="#D6336C" stroke-width="3"></path></g><g transform="translate(447 411)"><path d="M0 -143L111.8 -89.2L139.4 31.8L62 128.8L-62 128.8L-139.4 31.8L-111.8 -89.2Z" stroke="#D6336C" fill="none" stroke-width="3"></path></g><g transform="translate(773 485)"><path d="M0 -144L112.6 -89.8L140.4 32L62.5 129.7L-62.5 129.7L-140.4 32L-112.6 -89.8Z" stroke="#D6336C" fill="none" stroke-width="3"></path></g><g transform="translate(26 464)"><path d="M0 -142L111 -88.5L138.4 31.6L61.6 127.9L-61.6 127.9L-138.4 31.6L-111 -88.5Z" stroke="#D6336C" fill="none" stroke-width="3"></path></g><g transform="translate(957 179)"><path d="M0 -147L114.9 -91.7L143.3 32.7L63.8 132.4L-63.8 132.4L-143.3 32.7L-114.9 -91.7Z" stroke="#D6336C" fill="none" stroke-width="3"></path></g></g></svg>