<svg id="visual" viewBox="0 0 900 600" width="900" height="600" xmlns="http://www.w3.org/2000/svg" xmlns:xlink="http://www.w3.org/1999/xlink" version="1.1"><g><g transform="translate(646 547)"><path d="M0 -164.5L142.5 -82.3L142.5 82.3L0 164.5L-142.5 82.3L-142.5 -82.3Z" fill="none" stroke="#E64980" stroke-width="3"></path></g><g transform="translate(224 575)"><path d="M0 -120L103.9 -60L103.9 60L0 120L-103.9 60L-103.9 -60Z" fill="none" stroke="#E64980" stroke-width="3"></path></g><g transform="translate(884 217)"><path d="M0 -160L138.6 -80L138.6 80L0 160L-138.6 80L-138.6 -80Z" fill="none" stroke="#E64980" stroke-width="3"></path></g><g transform="translate(307 64)"><path d="M0 -138L119.5 -69L119.5 69L0 138L-119.5 69L-119.5 -69Z" fill="none" stroke="#E64980" stroke-width="3"></path></g><g transform="translate(10 304)"><path d="M0 -151L130.8 -75.5L130.8 75.5L0 151L-130.8 75.5L-130.8 -75.5Z" stroke="#E64980" fill="none" stroke-width="3"></path></g></g></svg>