<svg id="visual" viewBox="0 0 900 600" width="900" height="600" xmlns="http://www.w3.org/2000/svg" xmlns:xlink="http://www.w3.org/1999/xlink" version="1.1"><path d="M0 420L16.7 433.2C33.3 446.3 66.7 472.7 100 475.5C133.3 478.3 166.7 457.7 200 449.7C233.3 441.7 266.7 446.3 300 460.8C333.3 475.3 366.7 499.7 400 503.7C433.3 507.7 466.7 491.3 500 481.8C533.3 472.3 566.7 469.7 600 478.2C633.3 486.7 666.7 506.3 700 500.2C733.3 494 766.7 462 800 453.3C833.3 444.7 866.7 459.3 883.3 466.7L900 474L900 601L883.3 601C866.7 601 833.3 601 800 601C766.7 601 733.3 601 700 601C666.7 601 633.3 601 600 601C566.7 601 533.3 601 500 601C466.7 601 433.3 601 400 601C366.7 601 333.3 601 300 601C266.7 601 233.3 601 200 601C166.7 601 133.3 601 100 601C66.7 601 33.3 601 16.7 601L0 601Z" fill="#E64980" stroke-linecap="round" stroke-linejoin="miter"></path></svg>